<svg xmlns="http://www.w3.org/2000/svg" height="24px" width="24px" viewBox="0 0 26 32">
    <path d="M 14.4 5.52 v -0.08 q 0 -0.56 0.36 -1 t 0.92 -0.44 t 1 0.36 t 0.48 0.96 t -0.36 1 t -0.96 0.4 l -0.24 0.08 l 0.08 0.12 l -0.08 0.44 l -0.16 1.28 q 0.08 0.08 0.08 0.16 l -0.16 0.8 q -0.08 0.16 -0.16 0.24 l -0.08 0.32 q -0.16 0.64 -0.28 1.04 t -0.2 0.64 V 12 q -0.08 0.4 -0.12 0.64 t -0.28 0.8 q -0.16 0.32 0 1.04 l 0.08 0.08 q 0 0.24 0.2 0.56 t 0.2 0.56 q 0.08 1.6 -0.24 2.72 l 0.16 0.48 q 0.96 0.48 0.56 1.04 l 0.4 0.16 q 0.96 0.48 1.36 0.84 t 0.8 0.76 q 0.32 0.08 0.48 0.24 l 0.24 0.08 q 1.68 1.12 3.36 2.72 l 0.32 0.24 v 0.08 l -0.08 0.16 l 0.24 0.16 h 0.08 q 0.24 0.16 0.32 0.16 h 0.08 q 0.08 0 0.16 -0.08 l 0.16 -0.08 q 0.16 -0.16 0.32 -0.24 h 0.32 q 0.08 0 0 0.08 l -0.32 0.16 l -0.4 0.48 h 0.56 l 0.56 0.08 q 0.24 -0.08 0.4 -0.16 l 0.4 -0.24 q 0.24 -0.08 0.48 0.16 h 0.08 q 0.08 0.08 -0.08 0.24 l -0.96 0.88 q -0.4 0.32 -0.72 0.4 l -1.04 0.72 q -0.08 0.08 -0.16 0 l -0.24 -0.32 l -0.16 -0.32 l -0.2 -0.28 l -0.24 -0.32 l -0.2 -0.24 l -0.16 -0.2 l -0.32 -0.24 q -0.16 0 -0.32 -0.08 l -1.04 -0.8 q -0.24 0 -0.56 -0.24 q -1.2 -1.04 -1.6 -1.28 l -0.48 -0.32 l -0.96 -0.16 q -0.48 -0.08 -1.28 -0.48 l -0.64 -0.32 q -0.64 -0.32 -0.88 -0.32 l -0.32 -0.16 q -0.32 -0.08 -0.48 -0.16 l -0.16 -0.16 q -0.16 0 -0.32 0.08 l -1.6 0.8 l -2 0.88 q -0.8 0.64 -1.52 1.04 l -0.88 0.4 l -1.36 0.96 q -0.16 0.16 -0.32 0 l -0.16 0.16 q -0.24 0.08 -0.32 0.08 l -0.32 0.16 v 0.16 h -0.16 l -0.16 0.24 q -0.16 0.32 -0.32 0.36 t -0.2 0.12 t -0.08 0.12 l -0.16 0.16 l -0.24 0.16 l -0.36 -0.04 l -0.48 0.08 l -0.32 0.08 q -0.4 0.08 -0.64 -0.12 t -0.4 -0.6 q -0.16 -0.24 0.16 -0.4 l 0.08 -0.08 q 0.08 -0.08 0.24 -0.08 h 0.48 L 1.6 26 l 0.32 -0.08 q 0 -0.16 0.08 -0.24 q 0.08 -0.08 0.24 -0.08 v -0.08 q -0.08 -0.16 -0.08 -0.32 q -0.08 -0.16 -0.04 -0.24 t 0.08 -0.08 h 0.04 l 0.08 0.24 q 0.08 0.4 0.24 0.24 l 0.08 -0.16 q 0.08 -0.16 0.24 -0.16 l 0.16 0.16 l 0.16 -0.16 l -0.08 -0.08 q 0 -0.08 0.08 -0.08 l 0.32 -0.32 q 0.4 -0.48 0.96 -0.88 q 1.12 -0.88 2.4 -1.36 q 0.4 -0.4 0.88 -0.4 q 0.32 -0.56 0.96 -1.2 q 0.56 -0.4 0.8 -0.56 q 0.16 -0.32 0.4 -0.32 H 10 l 0.16 -0.16 q 0.16 -0.08 0.24 -0.16 v -0.4 q 0 -0.4 0.08 -0.64 t 0.4 -0.24 l 0.32 -0.32 q -0.16 -0.32 -0.16 -0.72 h -0.08 q -0.16 -0.24 -0.16 -0.48 q -0.24 -0.4 -0.32 -0.64 h -0.24 q -0.08 0.24 -0.4 0.32 l -0.08 0.16 q -0.32 0.56 -0.56 0.84 t -0.88 0.68 q -0.4 0.4 -0.56 0.88 q -0.08 0.24 0 0.48 l -0.08 0.16 h 0.08 q 0 0.16 0.08 0.16 h 0.08 q 0.16 0.08 0.16 0.2 t -0.24 0.08 t -0.36 -0.16 t -0.2 -0.12 l -0.24 0.24 q -0.16 0.24 -0.32 0.2 t -0.08 -0.12 l 0.08 -0.08 q 0.08 -0.16 0 -0.16 l -0.64 0.16 q -0.08 0.08 -0.2 0 t 0.04 -0.16 l 0.4 -0.16 q 0 -0.08 -0.08 -0.08 q -0.32 0.16 -0.64 0.08 l -0.4 -0.08 l -0.08 -0.08 q 0 -0.08 0.08 -0.08 q 0.32 0.08 0.8 -0.08 l 0.56 -0.24 l 0.64 -0.72 l 0.08 -0.16 q 0.32 -0.64 0.68 -1.16 t 0.76 -0.84 l 0.08 -0.32 q 0.16 -0.32 0.32 -0.56 t 0.4 -0.64 l 0.24 -0.32 q 0.32 -0.48 0.72 -0.48 l 0.24 -0.24 q 0.08 -0.08 0.08 -0.24 l 0.16 -0.16 l -0.08 -0.08 q -0.48 -0.4 -0.48 -0.72 q -0.08 -0.56 0.36 -0.96 t 0.88 -0.36 t 0.68 0.28 l 0.16 0.16 q 0.08 0 0.08 0.08 l 0.32 0.16 v 0.24 q 0.16 0.16 0.16 0.24 q 0.16 -0.24 0.48 -0.56 l 0.4 -1.28 q 0 -0.32 0.16 -0.64 l 0.16 -0.24 v -0.16 l 0.24 -0.96 h 0.16 l 0.24 -0.96 q 0.08 -0.24 0 -0.56 l -0.32 -0.8 Z" />
</svg>